<svg width="11" height="11" viewBox="0 0 11 11" fill="none" xmlns="http://www.w3.org/2000/svg">
<path d="M4.16467 0.625325L0.0906845 9.09699C-0.0809643 9.45389 -0.00545499 9.85709 0.287646 10.1492C0.580794 10.4414 1.03247 10.5635 1.46639 10.4681L4.89348 9.71401V6.02206C4.89348 5.85218 5.0531 5.71443 5.25001 5.71443C5.4469 5.71443 5.60655 5.85216 5.60655 6.02206V9.71401L9.03361 10.4681C9.46756 10.5635 9.91923 10.4414 10.2124 10.1492C10.5061 9.8565 10.5806 9.45325 10.4093 9.09697L6.33536 0.625304C6.14987 0.239593 5.73399 0 5.25001 0C4.76604 0 4.35013 0.239593 4.16467 0.625325Z" fill="#44D84A"/>
</svg>
