<svg width="11" height="11" viewBox="0 0 11 11" fill="none" xmlns="http://www.w3.org/2000/svg">
<path d="M6.33533 9.87467L10.4093 1.40301C10.581 1.04611 10.5055 0.642909 10.2124 0.350775C9.91921 0.0586406 9.46753 -0.0635451 9.03361 0.0319394L5.60652 0.785992V4.47794C5.60652 4.64782 5.4469 4.78557 5.24999 4.78557C5.0531 4.78557 4.89345 4.64784 4.89345 4.47794V0.785992L1.46639 0.0319394C1.03244 -0.0635451 0.580768 0.0586201 0.287643 0.350775C-0.00605148 0.643504 -0.0806341 1.04675 0.090682 1.40303L4.16464 9.8747C4.35013 10.2604 4.76601 10.5 5.24999 10.5C5.73396 10.5 6.14987 10.2604 6.33533 9.87467Z" fill="#ED1C25"/>
</svg>
