<svg width="10" height="14" viewBox="0 0 10 14" fill="none" xmlns="http://www.w3.org/2000/svg">
<path d="M6.05664 9.69044C6.05664 9.86637 6.1139 10.0375 6.21977 10.178C6.32564 10.3185 6.47437 10.4207 6.64348 10.4692C6.81258 10.5177 6.99288 10.5099 7.15713 10.4468C7.32137 10.3838 7.46064 10.269 7.55388 10.1198L9.73168 7.94286C9.8069 7.86758 9.86656 7.77823 9.90725 7.6799C9.94794 7.58157 9.96886 7.47618 9.96882 7.36977C9.96878 7.26335 9.94779 7.15798 9.90703 7.05968C9.86627 6.96137 9.80655 6.87206 9.73127 6.79684C9.656 6.72162 9.56664 6.66196 9.46831 6.62127C9.36998 6.58058 9.2646 6.55966 9.15818 6.55969C9.05176 6.55973 8.94639 6.58073 8.84809 6.62149C8.74979 6.66225 8.66048 6.72197 8.58525 6.79725L7.67784 7.70466V1.58851C7.67784 1.37364 7.59248 1.16756 7.44054 1.01562C7.2886 0.86368 7.08252 0.77832 6.86764 0.77832C6.65277 0.77832 6.44669 0.86368 6.29475 1.01562C6.14281 1.16756 6.05745 1.37364 6.05745 1.58851V9.64993V9.69044H6.05664Z" fill="white"/>
<path d="M4.46258 4.82973C4.46258 4.6538 4.40532 4.48266 4.29945 4.34215C4.19358 4.20165 4.04485 4.09943 3.87575 4.05093C3.70664 4.00243 3.52634 4.01029 3.3621 4.07332C3.19785 4.13636 3.05859 4.25114 2.96535 4.40033L0.788358 6.57731C0.710976 6.65205 0.649254 6.74145 0.606792 6.8403C0.564331 6.93915 0.541981 7.04546 0.541046 7.15304C0.540111 7.26061 0.56061 7.3673 0.601348 7.46687C0.642085 7.56644 0.702244 7.6569 0.778316 7.73297C0.854387 7.80904 0.944846 7.8692 1.04442 7.90994C1.14399 7.95067 1.25067 7.97117 1.35825 7.97024C1.46583 7.9693 1.57214 7.94695 1.67099 7.90449C1.76983 7.86203 1.85923 7.80031 1.93397 7.72293L2.8422 6.81551V12.9317C2.8422 13.1465 2.92756 13.3526 3.0795 13.5046C3.23144 13.6565 3.43751 13.7419 3.65239 13.7419C3.86727 13.7419 4.07334 13.6565 4.22528 13.5046C4.37722 13.3526 4.46258 13.1465 4.46258 12.9317V4.87024V4.82973Z" fill="white"/>
</svg>
