<svg width="430" height="750" viewBox="0 0 408 698" fill="none" xmlns="http://www.w3.org/2000/svg">
<g filter="url(#filter0_d_80_453)">
<path fill-rule="evenodd" clip-rule="evenodd" d="M34.1799 34.9202C32 39.1984 32 44.799 32 56V658H41.971C41.972 651.268 45.9894 645.81 50.9449 645.81C55.9005 645.81 59.9178 651.268 59.9188 658H67.8956C67.8966 651.268 71.914 645.81 76.8695 645.81C81.8251 645.81 85.8425 651.268 85.8435 658H93.8203C93.8213 651.268 97.8387 645.81 102.794 645.81C107.75 645.81 111.767 651.268 111.768 658H119.745C119.746 651.268 123.763 645.81 128.719 645.81C133.674 645.81 137.692 651.268 137.693 658H145.67C145.671 651.268 149.688 645.81 154.643 645.81C159.599 645.81 163.616 651.268 163.617 658H171.594C171.595 651.268 175.613 645.81 180.568 645.81C185.524 645.81 189.541 651.268 189.542 658H197.519C197.52 651.268 201.537 645.81 206.493 645.81C211.448 645.81 215.466 651.268 215.467 658H223.443C223.444 651.268 227.462 645.81 232.417 645.81C237.373 645.81 241.39 651.268 241.391 658H249.368C249.369 651.268 253.386 645.81 258.342 645.81C263.298 645.81 267.315 651.268 267.316 658H275.293C275.294 651.268 279.311 645.81 284.267 645.81C289.222 645.81 293.24 651.268 293.241 658H301.217C301.218 651.268 305.236 645.81 310.191 645.81C315.147 645.81 319.164 651.268 319.165 658H327.142C327.143 651.268 331.16 645.81 336.116 645.81C341.071 645.81 345.089 651.268 345.09 658H353.067C353.068 651.268 357.085 645.81 362.041 645.81C366.996 645.81 371.013 651.268 371.014 658H376V56C376 44.7989 376 39.1984 373.82 34.9202C371.903 31.1569 368.843 28.0973 365.08 26.1799C360.802 24 355.201 24 344 24H64C52.799 24 47.1984 24 42.9202 26.1799C39.1569 28.0973 36.0973 31.1569 34.1799 34.9202Z" fill="white"/>
</g>
<defs>
<filter id="filter0_d_80_453" x="0" y="0" width="408" height="698" filterUnits="userSpaceOnUse" color-interpolation-filters="sRGB">
<feFlood flood-opacity="0" result="BackgroundImageFix"/>
<feColorMatrix in="SourceAlpha" type="matrix" values="0 0 0 0 0 0 0 0 0 0 0 0 0 0 0 0 0 0 127 0" result="hardAlpha"/>
<feOffset dy="8"/>
<feGaussianBlur stdDeviation="16"/>
<feComposite in2="hardAlpha" operator="out"/>
<feColorMatrix type="matrix" values="0 0 0 0 0.4 0 0 0 0 0.4 0 0 0 0 0.4 0 0 0 0.16 0"/>
<feBlend mode="normal" in2="BackgroundImageFix" result="effect1_dropShadow_80_453"/>
<feBlend mode="normal" in="SourceGraphic" in2="effect1_dropShadow_80_453" result="shape"/>
</filter>
</defs>
</svg>
