<svg width="20" height="20" viewBox="0 0 16 16" fill="none" xmlns="http://www.w3.org/2000/svg">
<path d="M8.02675 8.02578C8.80478 8.02578 9.56534 7.79507 10.2122 7.36282C10.8592 6.93057 11.3634 6.31619 11.6611 5.59739C11.9588 4.87858 12.0367 4.08763 11.885 3.32455C11.7332 2.56147 11.3585 1.86053 10.8084 1.31038C10.2582 0.760235 9.55728 0.385578 8.7942 0.233792C8.03112 0.0820055 7.24016 0.159908 6.52136 0.457647C5.80255 0.755386 5.18818 1.25959 4.75593 1.9065C4.32368 2.55341 4.09297 3.31396 4.09297 4.09199C4.09604 5.13435 4.51148 6.13314 5.24854 6.8702C5.98561 7.60727 6.98439 8.0227 8.02675 8.02578ZM8.02675 9.99326C5.42055 9.99326 0.15918 11.3208 0.15918 13.927V15.8934H15.8943V13.927C15.8943 11.3208 10.633 9.99326 8.02675 9.99326Z" fill="#6FCEE1"/>
</svg>
