<svg width="144" height="145" viewBox="0 0 144 145" fill="none" xmlns="http://www.w3.org/2000/svg">
<g filter="url(#filter0_d_664_70539)">
<circle cx="71.768" cy="66.2309" r="63.9283" fill="white" stroke="#6FCEE1" stroke-width="1.67948"/>
<path fill-rule="evenodd" clip-rule="evenodd" d="M89.9252 19.6334L102.97 32.8448C109.279 39.2243 111.045 38.2464 103.2 41.1619L89.2991 46.5214C84.9451 48.1236 85.1546 48.6173 87.8655 44.6901L89.9569 41.6854C47.4498 29.9775 22.8035 44.2256 26.057 58.5451C25.3614 45.28 40.4932 36.2202 83.7081 46.6945L81.734 49.4689C79.2582 53.0906 79.0483 52.6023 83.0799 51.1463L107.043 43.1498C113.62 40.6935 114.188 39.5474 109.643 35.252C101.05 27.1731 94.5402 20.7136 85.1021 13.2835L85.8948 22.2256C74.4188 19.8977 70.0356 19.9164 57.3882 19.4294C68.0918 20.3837 79.2548 23.85 89.2594 26.5548L87.9429 20.7007C86.9634 16.0868 86.6522 16.3362 89.9252 19.6334Z" fill="#00D5FF"/>
<path fill-rule="evenodd" clip-rule="evenodd" d="M53.5113 109.921L40.5233 96.6642C34.2175 90.3327 32.4583 91.2503 40.3073 88.3458L54.1816 83.0333C58.5745 81.4125 58.3254 80.9492 55.6155 84.8628L53.5214 87.8681C96.0051 99.6538 120.733 85.4613 117.482 71.0951L117.445 71.1189C118.178 84.4011 102.97 93.4192 59.809 82.8513L61.7515 80.1022C64.2616 76.5234 64.4858 76.951 60.412 78.4178L36.4677 86.3488C29.8541 88.8202 29.2858 89.9642 33.8806 94.2828C42.4595 102.374 48.8954 108.83 58.3439 116.318L57.5813 107.314C69.0187 109.679 73.3986 109.675 86.0499 110.183C75.3859 109.189 64.2237 105.702 54.1919 103.003L55.4944 108.859C56.4923 113.513 56.8113 113.198 53.5113 109.921Z" fill="#012646"/>
<path d="M24.6769 70.7344V60.9898H29.4378C30.6629 60.9898 31.5816 61.2218 32.1942 61.6858C32.816 62.1499 33.1269 62.7624 33.1269 63.5234C33.1269 64.0338 33.0016 64.4793 32.751 64.8598C32.5004 65.231 32.157 65.5187 31.7209 65.7229C31.2847 65.927 30.7835 66.0291 30.2174 66.0291L30.4819 65.4584C31.0944 65.4584 31.6373 65.5605 32.1106 65.7646C32.5839 65.9595 32.9505 66.2519 33.2104 66.6417C33.4795 67.0314 33.6141 67.5094 33.6141 68.0755C33.6141 68.9107 33.2846 69.565 32.6257 70.0383C31.9668 70.5024 30.997 70.7344 29.7163 70.7344H24.6769ZM26.9182 69.036H29.5492C30.1339 69.036 30.5747 68.9432 30.8717 68.7576C31.1779 68.5627 31.3311 68.2565 31.3311 67.8388C31.3311 67.4305 31.1779 67.1289 30.8717 66.934C30.5747 66.7298 30.1339 66.6277 29.5492 66.6277H26.7511V64.9851H29.1594C29.707 64.9851 30.1246 64.8923 30.4123 64.7067C30.7093 64.5118 30.8578 64.2194 30.8578 63.8296C30.8578 63.4491 30.7093 63.1661 30.4123 62.9805C30.1246 62.7856 29.707 62.6881 29.1594 62.6881H26.9182V69.036ZM38.8852 70.8457C38.0314 70.8457 37.2797 70.6787 36.63 70.3446C35.9897 70.0105 35.4931 69.5557 35.1405 68.9804C34.7878 68.3957 34.6115 67.7321 34.6115 66.9897C34.6115 66.2379 34.7832 65.5744 35.1266 64.999C35.4792 64.4143 35.9572 63.9596 36.5604 63.6348C37.1636 63.3007 37.8458 63.1336 38.6068 63.1336C39.3399 63.1336 39.9989 63.2914 40.5835 63.6069C41.1775 63.9132 41.6462 64.3586 41.9895 64.9433C42.3329 65.5187 42.5046 66.2101 42.5046 67.0175C42.5046 67.101 42.5 67.1985 42.4907 67.3099C42.4814 67.4119 42.4721 67.5094 42.4628 67.6022H36.3794V66.3354H41.3213L40.4861 66.7113C40.4861 66.3215 40.4072 65.9827 40.2494 65.695C40.0917 65.4073 39.8736 65.1846 39.5952 65.0268C39.3167 64.8598 38.9919 64.7763 38.6207 64.7763C38.2495 64.7763 37.92 64.8598 37.6323 65.0268C37.3539 65.1846 37.1358 65.412 36.978 65.709C36.8203 65.9967 36.7414 66.34 36.7414 66.7391V67.0732C36.7414 67.4815 36.8295 67.8435 37.0059 68.159C37.1915 68.4653 37.4467 68.7019 37.7715 68.869C38.1056 69.0268 38.4954 69.1056 38.9409 69.1056C39.3399 69.1056 39.688 69.0453 39.9849 68.9247C40.2912 68.804 40.5696 68.623 40.8202 68.3818L41.9756 69.6346C41.6322 70.0244 41.2007 70.326 40.681 70.5395C40.1613 70.7437 39.5627 70.8457 38.8852 70.8457ZM46.4701 70.8457C45.8297 70.8457 45.2126 70.7715 44.6186 70.623C44.0339 70.4652 43.5699 70.2703 43.2265 70.0383L43.9504 68.4792C44.2938 68.6927 44.6975 68.869 45.1615 69.0082C45.6348 69.1381 46.0989 69.2031 46.5536 69.2031C47.0548 69.2031 47.4074 69.1428 47.6116 69.0221C47.825 68.9015 47.9318 68.7344 47.9318 68.521C47.9318 68.3446 47.8482 68.2147 47.6812 68.1312C47.5234 68.0384 47.31 67.9688 47.0408 67.9224C46.7717 67.876 46.4747 67.8296 46.1499 67.7832C45.8344 67.7368 45.5142 67.6764 45.1894 67.6022C44.8645 67.5187 44.5676 67.398 44.2984 67.2402C44.0293 67.0825 43.8112 66.869 43.6442 66.5999C43.4864 66.3308 43.4075 65.9827 43.4075 65.5558C43.4075 65.0825 43.5421 64.6649 43.8112 64.303C44.0896 63.941 44.4887 63.658 45.0084 63.4538C45.5281 63.2403 46.1499 63.1336 46.8738 63.1336C47.3842 63.1336 47.9039 63.1893 48.4329 63.3007C48.9619 63.412 49.4027 63.5744 49.7554 63.7879L49.0315 65.3331C48.6696 65.1196 48.303 64.9758 47.9318 64.9015C47.5698 64.818 47.2172 64.7763 46.8738 64.7763C46.3912 64.7763 46.0385 64.8412 45.8158 64.9712C45.5931 65.1011 45.4817 65.2681 45.4817 65.4723C45.4817 65.6579 45.5606 65.7971 45.7184 65.8899C45.8854 65.9827 46.1035 66.057 46.3726 66.1127C46.6418 66.1683 46.9341 66.2194 47.2496 66.2658C47.5745 66.3029 47.8993 66.3632 48.2241 66.4468C48.5489 66.5303 48.8413 66.6509 49.1011 66.8087C49.3703 66.9572 49.5883 67.166 49.7554 67.4351C49.9224 67.695 50.006 68.0384 50.006 68.4653C50.006 68.9293 49.8668 69.3423 49.5883 69.7042C49.3099 70.0569 48.9062 70.3353 48.3772 70.5395C47.8575 70.7437 47.2218 70.8457 46.4701 70.8457ZM54.4084 70.8457C53.5268 70.8457 52.84 70.623 52.3482 70.1775C51.8563 69.7228 51.6103 69.05 51.6103 68.159V61.5884H53.782V68.1312C53.782 68.4467 53.8655 68.6927 54.0326 68.869C54.1996 69.036 54.427 69.1196 54.7147 69.1196C55.0581 69.1196 55.3504 69.0268 55.5917 68.8411L56.1764 70.3724C55.9536 70.5302 55.6845 70.6509 55.369 70.7344C55.0627 70.8086 54.7425 70.8457 54.4084 70.8457ZM50.4549 65.0825V63.412H55.6474V65.0825H50.4549Z" fill="#00D4FF"/>
<path d="M63.5095 70.7344V62.8273H60.3912V60.9898H68.8829V62.8273H65.7647V70.7344H63.5095ZM69.7801 70.7344V63.245H71.8543V65.3609L71.5619 64.7484C71.7847 64.2194 72.142 63.8204 72.6338 63.5512C73.1257 63.2728 73.7243 63.1336 74.4296 63.1336V65.1382C74.3368 65.1289 74.2533 65.1243 74.1791 65.1243C74.1048 65.115 74.0259 65.1104 73.9424 65.1104C73.3485 65.1104 72.8659 65.282 72.4946 65.6254C72.1327 65.9595 71.9517 66.4839 71.9517 67.1985V70.7344H69.7801ZM79.8254 70.7344V69.2727L79.6862 68.9525V66.3354C79.6862 65.8714 79.5423 65.5094 79.2546 65.2496C78.9762 64.9897 78.5447 64.8598 77.96 64.8598C77.5609 64.8598 77.1665 64.9247 76.7767 65.0547C76.3962 65.1753 76.0714 65.3424 75.8023 65.5558L75.0227 64.0385C75.431 63.7508 75.9229 63.528 76.4983 63.3703C77.0737 63.2125 77.6584 63.1336 78.2523 63.1336C79.3938 63.1336 80.2801 63.4027 80.9112 63.941C81.5423 64.4793 81.8578 65.3192 81.8578 66.4607V70.7344H79.8254ZM77.5424 70.8457C76.9577 70.8457 76.4565 70.7483 76.0389 70.5534C75.6213 70.3492 75.3011 70.0755 75.0784 69.7321C74.8556 69.3887 74.7443 69.0036 74.7443 68.5766C74.7443 68.1312 74.851 67.7414 75.0644 67.4073C75.2872 67.0732 75.6352 66.8133 76.1085 66.6277C76.5818 66.4328 77.199 66.3354 77.96 66.3354H79.9507V67.6022H78.1966C77.6862 67.6022 77.3335 67.6857 77.1387 67.8528C76.953 68.0198 76.8602 68.2286 76.8602 68.4792C76.8602 68.7576 76.967 68.9804 77.1804 69.1474C77.4031 69.3052 77.7048 69.3841 78.0853 69.3841C78.4472 69.3841 78.772 69.3005 79.0597 69.1335C79.3474 68.9571 79.5562 68.7019 79.6862 68.3678L80.0203 69.3701C79.8625 69.8527 79.5748 70.2193 79.1572 70.4699C78.7395 70.7205 78.2013 70.8457 77.5424 70.8457ZM88.3754 63.1336C88.9693 63.1336 89.4983 63.2542 89.9623 63.4955C90.4357 63.7276 90.8069 64.0895 91.076 64.5814C91.3452 65.064 91.4797 65.6858 91.4797 66.4468V70.7344H89.3081V66.7809C89.3081 66.1776 89.1735 65.7322 88.9044 65.4445C88.6445 65.1568 88.2733 65.0129 87.7907 65.0129C87.4473 65.0129 87.1364 65.0872 86.858 65.2356C86.5889 65.3749 86.3754 65.5929 86.2176 65.8899C86.0692 66.1869 85.9949 66.5674 85.9949 67.0314V70.7344H83.8233V63.245H85.8975V65.3192L85.5077 64.6927C85.7768 64.1916 86.162 63.8064 86.6631 63.5373C87.1643 63.2682 87.735 63.1336 88.3754 63.1336ZM95.9679 70.8457C95.3275 70.8457 94.7104 70.7715 94.1164 70.623C93.5317 70.4652 93.0677 70.2703 92.7243 70.0383L93.4482 68.4792C93.7916 68.6927 94.1953 68.869 94.6593 69.0082C95.1326 69.1381 95.5967 69.2031 96.0514 69.2031C96.5526 69.2031 96.9052 69.1428 97.1094 69.0221C97.3228 68.9015 97.4296 68.7344 97.4296 68.521C97.4296 68.3446 97.346 68.2147 97.179 68.1312C97.0212 68.0384 96.8078 67.9688 96.5386 67.9224C96.2695 67.876 95.9725 67.8296 95.6477 67.7832C95.3322 67.7368 95.012 67.6764 94.6872 67.6022C94.3623 67.5187 94.0654 67.398 93.7962 67.2402C93.5271 67.0825 93.309 66.869 93.1419 66.5999C92.9842 66.3308 92.9053 65.9827 92.9053 65.5558C92.9053 65.0825 93.0399 64.6649 93.309 64.303C93.5874 63.941 93.9865 63.658 94.5062 63.4538C95.0259 63.2403 95.6477 63.1336 96.3716 63.1336C96.882 63.1336 97.4017 63.1893 97.9307 63.3007C98.4597 63.412 98.9005 63.5744 99.2532 63.7879L98.5293 65.3331C98.1674 65.1196 97.8008 64.9758 97.4296 64.9015C97.0676 64.818 96.715 64.7763 96.3716 64.7763C95.889 64.7763 95.5363 64.8412 95.3136 64.9712C95.0909 65.1011 94.9795 65.2681 94.9795 65.4723C94.9795 65.6579 95.0584 65.7971 95.2162 65.8899C95.3832 65.9827 95.6013 66.057 95.8704 66.1127C96.1396 66.1683 96.4319 66.2194 96.7474 66.2658C97.0723 66.3029 97.3971 66.3632 97.7219 66.4468C98.0467 66.5303 98.3391 66.6509 98.5989 66.8087C98.8681 66.9572 99.0861 67.166 99.2532 67.4351C99.4202 67.695 99.5038 68.0384 99.5038 68.4653C99.5038 68.9293 99.3646 69.3423 99.0861 69.7042C98.8077 70.0569 98.404 70.3353 97.875 70.5395C97.3553 70.7437 96.7196 70.8457 95.9679 70.8457ZM101.108 70.7344V63.0779C101.108 62.2334 101.359 61.5605 101.86 61.0594C102.361 60.549 103.076 60.2938 104.004 60.2938C104.319 60.2938 104.621 60.3262 104.909 60.3912C105.206 60.4562 105.456 60.5582 105.66 60.6975L105.09 62.2705C104.969 62.187 104.834 62.122 104.686 62.0756C104.537 62.0292 104.38 62.006 104.212 62.006C103.897 62.006 103.651 62.0988 103.475 62.2844C103.308 62.4608 103.224 62.7299 103.224 63.0918V63.7879L103.28 64.7206V70.7344H101.108ZM99.9527 65.0825V63.412H105.145V65.0825H99.9527ZM109.849 70.8457C108.995 70.8457 108.243 70.6787 107.594 70.3446C106.953 70.0105 106.457 69.5557 106.104 68.9804C105.751 68.3957 105.575 67.7321 105.575 66.9897C105.575 66.2379 105.747 65.5744 106.09 64.999C106.443 64.4143 106.921 63.9596 107.524 63.6348C108.127 63.3007 108.809 63.1336 109.57 63.1336C110.304 63.1336 110.962 63.2914 111.547 63.6069C112.141 63.9132 112.61 64.3586 112.953 64.9433C113.297 65.5187 113.468 66.2101 113.468 67.0175C113.468 67.101 113.464 67.1985 113.454 67.3099C113.445 67.4119 113.436 67.5094 113.426 67.6022H107.343V66.3354H112.285L111.45 66.7113C111.45 66.3215 111.371 65.9827 111.213 65.695C111.055 65.4073 110.837 65.1846 110.559 65.0268C110.28 64.8598 109.956 64.7763 109.584 64.7763C109.213 64.7763 108.884 64.8598 108.596 65.0268C108.318 65.1846 108.099 65.412 107.942 65.709C107.784 65.9967 107.705 66.34 107.705 66.7391V67.0732C107.705 67.4815 107.793 67.8435 107.969 68.159C108.155 68.4653 108.41 68.7019 108.735 68.869C109.069 69.0268 109.459 69.1056 109.904 69.1056C110.304 69.1056 110.652 69.0453 110.949 68.9247C111.255 68.804 111.533 68.623 111.784 68.3818L112.939 69.6346C112.596 70.0244 112.164 70.326 111.645 70.5395C111.125 70.7437 110.526 70.8457 109.849 70.8457ZM114.914 70.7344V63.245H116.988V65.3609L116.696 64.7484C116.919 64.2194 117.276 63.8204 117.768 63.5512C118.26 63.2728 118.858 63.1336 119.564 63.1336V65.1382C119.471 65.1289 119.387 65.1243 119.313 65.1243C119.239 65.115 119.16 65.1104 119.076 65.1104C118.482 65.1104 118 65.282 117.629 65.6254C117.267 65.9595 117.086 66.4839 117.086 67.1985V70.7344H114.914Z" fill="#012B50"/>
</g>
<defs>
<filter id="filter0_d_664_70539" x="0.282082" y="1.46289" width="142.972" height="142.971" filterUnits="userSpaceOnUse" color-interpolation-filters="sRGB">
<feFlood flood-opacity="0" result="BackgroundImageFix"/>
<feColorMatrix in="SourceAlpha" type="matrix" values="0 0 0 0 0 0 0 0 0 0 0 0 0 0 0 0 0 0 127 0" result="hardAlpha"/>
<feOffset dy="6.71792"/>
<feGaussianBlur stdDeviation="3.35896"/>
<feComposite in2="hardAlpha" operator="out"/>
<feColorMatrix type="matrix" values="0 0 0 0 0 0 0 0 0 0 0 0 0 0 0 0 0 0 0.25 0"/>
<feBlend mode="normal" in2="BackgroundImageFix" result="effect1_dropShadow_664_70539"/>
<feBlend mode="normal" in="SourceGraphic" in2="effect1_dropShadow_664_70539" result="shape"/>
</filter>
</defs>
</svg>
