<svg width="144" height="145" viewBox="0 0 144 145" fill="none" xmlns="http://www.w3.org/2000/svg">
<g filter="url(#filter0_d_47_403)">
<circle cx="71.7678" cy="66.2318" r="63.9283" fill="white" stroke="#6FCEE1" stroke-width="1.67948"/>
<path fill-rule="evenodd" clip-rule="evenodd" d="M89.9249 19.6331L102.97 32.8445C109.279 39.224 111.045 38.2461 103.2 41.1616L89.2989 46.5212C84.9449 48.1234 85.1543 48.617 87.8652 44.6898L89.9567 41.6851C47.4496 29.9772 22.8032 44.2254 26.0567 58.5448C25.3611 45.2798 40.4929 36.22 83.7078 46.6943L81.7338 49.4686C79.258 53.0903 79.0481 52.602 83.0796 51.146L107.043 43.1496C113.62 40.6932 114.188 39.5471 109.643 35.2517C101.05 27.1729 94.5399 20.7133 85.1018 13.2833L85.8946 22.2253C74.4185 19.8974 70.0353 19.9161 57.388 19.4291C68.0916 20.3834 79.2546 23.8497 89.2592 26.5545L87.9427 20.7004C86.9632 16.0866 86.6519 16.3359 89.9249 19.6331Z" fill="#00D5FF"/>
<path fill-rule="evenodd" clip-rule="evenodd" d="M53.5109 109.921L40.5229 96.6641C34.2171 90.3326 32.4578 91.2502 40.3069 88.3457L54.1811 83.0332C58.574 81.4124 58.3249 80.9491 55.615 84.8627L53.521 87.868C96.0046 99.6537 120.732 85.4612 117.482 71.095L117.444 71.1188C118.178 84.401 102.969 93.4191 59.8085 82.8512L61.751 80.1021C64.2611 76.5233 64.4853 76.9509 60.4115 78.4177L36.4672 86.3487C29.8536 88.8201 29.2853 89.9641 33.8801 94.2827C42.4591 102.374 48.8949 108.83 58.3434 116.318L57.5808 107.314C69.0183 109.679 73.3982 109.675 86.0494 110.183C75.3854 109.189 64.2232 105.702 54.1914 103.003L55.4939 108.859C56.4918 113.513 56.8108 113.198 53.5109 109.921Z" fill="#012646"/>
<path d="M24.6772 70.734V60.9894H29.4381C30.6631 60.9894 31.5819 61.2214 32.1944 61.6854C32.8162 62.1495 33.1271 62.762 33.1271 63.523C33.1271 64.0334 33.0018 64.4789 32.7512 64.8594C32.5007 65.2306 32.1573 65.5183 31.7211 65.7225C31.2849 65.9267 30.7838 66.0287 30.2176 66.0287L30.4821 65.458C31.0947 65.458 31.6376 65.5601 32.1109 65.7642C32.5842 65.9591 32.9508 66.2515 33.2106 66.6413C33.4798 67.031 33.6143 67.509 33.6143 68.0751C33.6143 68.9103 33.2849 69.5646 32.626 70.0379C31.967 70.502 30.9972 70.734 29.7165 70.734H24.6772ZM26.9184 69.0356H29.5494C30.1341 69.0356 30.5749 68.9428 30.8719 68.7572C31.1782 68.5623 31.3313 68.2561 31.3313 67.8384C31.3313 67.4301 31.1782 67.1285 30.8719 66.9336C30.5749 66.7294 30.1341 66.6273 29.5494 66.6273H26.7514V64.9847H29.1597C29.7072 64.9847 30.1248 64.8919 30.4125 64.7063C30.7095 64.5114 30.858 64.219 30.858 63.8292C30.858 63.4487 30.7095 63.1657 30.4125 62.9801C30.1248 62.7852 29.7072 62.6877 29.1597 62.6877H26.9184V69.0356ZM38.8854 70.8453C38.0316 70.8453 37.2799 70.6783 36.6303 70.3442C35.9899 70.0101 35.4934 69.5553 35.1407 68.98C34.7881 68.3953 34.6117 67.7317 34.6117 66.9893C34.6117 66.2375 34.7834 65.574 35.1268 64.9986C35.4795 64.4139 35.9574 63.9592 36.5607 63.6344C37.1639 63.3003 37.846 63.1332 38.607 63.1332C39.3402 63.1332 39.9991 63.291 40.5838 63.6065C41.1777 63.9128 41.6464 64.3582 41.9898 64.9429C42.3332 65.5183 42.5048 66.2097 42.5048 67.0171C42.5048 67.1006 42.5002 67.1981 42.4909 67.3095C42.4816 67.4115 42.4724 67.509 42.4631 67.6018H36.3797V66.335H41.3216L40.4863 66.7109C40.4863 66.3211 40.4074 65.9823 40.2497 65.6946C40.0919 65.4069 39.8738 65.1842 39.5954 65.0264C39.317 64.8594 38.9922 64.7759 38.6209 64.7759C38.2497 64.7759 37.9203 64.8594 37.6326 65.0264C37.3541 65.1842 37.136 65.4116 36.9783 65.7086C36.8205 65.9963 36.7416 66.3396 36.7416 66.7387V67.0728C36.7416 67.4811 36.8298 67.8431 37.0061 68.1586C37.1917 68.4649 37.4469 68.7015 37.7718 68.8686C38.1059 69.0264 38.4956 69.1052 38.9411 69.1052C39.3402 69.1052 39.6882 69.0449 39.9852 68.9243C40.2914 68.8036 40.5699 68.6227 40.8204 68.3814L41.9759 69.6342C41.6325 70.024 41.2009 70.3256 40.6812 70.5391C40.1615 70.7433 39.5629 70.8453 38.8854 70.8453ZM46.4703 70.8453C45.83 70.8453 45.2128 70.7711 44.6189 70.6226C44.0342 70.4648 43.5702 70.27 43.2268 70.0379L43.9507 68.4788C44.294 68.6923 44.6977 68.8686 45.1618 69.0078C45.6351 69.1377 46.0991 69.2027 46.5539 69.2027C47.055 69.2027 47.4077 69.1424 47.6118 69.0217C47.8253 68.9011 47.932 68.734 47.932 68.5206C47.932 68.3442 47.8485 68.2143 47.6814 68.1308C47.5237 68.038 47.3102 67.9684 47.0411 67.922C46.7719 67.8756 46.475 67.8292 46.1501 67.7828C45.8346 67.7364 45.5144 67.676 45.1896 67.6018C44.8648 67.5183 44.5678 67.3976 44.2987 67.2398C44.0295 67.0821 43.8114 66.8686 43.6444 66.5995C43.4866 66.3304 43.4077 65.9823 43.4077 65.5554C43.4077 65.0821 43.5423 64.6645 43.8114 64.3026C44.0899 63.9406 44.4889 63.6576 45.0086 63.4534C45.5284 63.2399 46.1501 63.1332 46.874 63.1332C47.3845 63.1332 47.9042 63.1889 48.4332 63.3003C48.9622 63.4116 49.403 63.574 49.7556 63.7875L49.0318 65.3327C48.6698 65.1192 48.3032 64.9754 47.932 64.9011C47.5701 64.8176 47.2174 64.7759 46.874 64.7759C46.3914 64.7759 46.0388 64.8408 45.816 64.9708C45.5933 65.1007 45.4819 65.2677 45.4819 65.4719C45.4819 65.6575 45.5608 65.7967 45.7186 65.8895C45.8857 65.9823 46.1037 66.0566 46.3729 66.1123C46.642 66.1679 46.9344 66.219 47.2499 66.2654C47.5747 66.3025 47.8995 66.3628 48.2244 66.4464C48.5492 66.5299 48.8415 66.6505 49.1014 66.8083C49.3705 66.9568 49.5886 67.1656 49.7556 67.4347C49.9227 67.6946 50.0062 68.038 50.0062 68.4649C50.0062 68.9289 49.867 69.3419 49.5886 69.7038C49.3102 70.0565 48.9065 70.3349 48.3775 70.5391C47.8578 70.7433 47.2221 70.8453 46.4703 70.8453ZM54.4087 70.8453C53.527 70.8453 52.8403 70.6226 52.3484 70.1771C51.8565 69.7224 51.6106 69.0496 51.6106 68.1586V61.588H53.7822V68.1308C53.7822 68.4463 53.8658 68.6923 54.0328 68.8686C54.1999 69.0356 54.4272 69.1192 54.7149 69.1192C55.0583 69.1192 55.3507 69.0264 55.592 68.8407L56.1766 70.372C55.9539 70.5298 55.6848 70.6505 55.3692 70.734C55.063 70.8082 54.7428 70.8453 54.4087 70.8453ZM50.4552 65.0821V63.4116H55.6476V65.0821H50.4552Z" fill="#00D4FF"/>
<path d="M63.5097 70.734V62.8269H60.3915V60.9894H68.8832V62.8269H65.7649V70.734H63.5097ZM69.7803 70.734V63.2446H71.8545V65.3605L71.5622 64.748C71.7849 64.219 72.1422 63.82 72.6341 63.5508C73.126 63.2724 73.7246 63.1332 74.4299 63.1332V65.1378C74.3371 65.1285 74.2535 65.1239 74.1793 65.1239C74.1051 65.1146 74.0262 65.11 73.9427 65.11C73.3487 65.11 72.8661 65.2817 72.4949 65.625C72.1329 65.9591 71.952 66.4835 71.952 67.1981V70.734H69.7803ZM79.8256 70.734V69.2723L79.6864 68.9521V66.335C79.6864 65.871 79.5426 65.509 79.2549 65.2492C78.9764 64.9893 78.5449 64.8594 77.9602 64.8594C77.5612 64.8594 77.1667 64.9244 76.777 65.0543C76.3965 65.1749 76.0716 65.342 75.8025 65.5554L75.0229 64.0381C75.4313 63.7504 75.9231 63.5276 76.4985 63.3699C77.0739 63.2121 77.6586 63.1332 78.2526 63.1332C79.3941 63.1332 80.2804 63.4023 80.9114 63.9406C81.5425 64.4789 81.8581 65.3188 81.8581 66.4603V70.734H79.8256ZM77.5426 70.8453C76.9579 70.8453 76.4568 70.7479 76.0392 70.553C75.6215 70.3488 75.3013 70.0751 75.0786 69.7317C74.8559 69.3883 74.7445 69.0032 74.7445 68.5762C74.7445 68.1308 74.8512 67.741 75.0647 67.4069C75.2874 67.0728 75.6354 66.8129 76.1088 66.6273C76.5821 66.4324 77.1992 66.335 77.9602 66.335H79.9509V67.6018H78.1969C77.6864 67.6018 77.3338 67.6853 77.1389 67.8524C76.9533 68.0194 76.8605 68.2282 76.8605 68.4788C76.8605 68.7572 76.9672 68.98 77.1807 69.147C77.4034 69.3048 77.705 69.3837 78.0855 69.3837C78.4475 69.3837 78.7723 69.3001 79.06 69.1331C79.3477 68.9568 79.5565 68.7015 79.6864 68.3674L80.0205 69.3697C79.8627 69.8523 79.575 70.2189 79.1574 70.4695C78.7398 70.7201 78.2015 70.8453 77.5426 70.8453ZM88.3756 63.1332C88.9696 63.1332 89.4986 63.2539 89.9626 63.4951C90.4359 63.7272 90.8071 64.0891 91.0763 64.581C91.3454 65.0636 91.48 65.6854 91.48 66.4464V70.734H89.3083V66.7805C89.3083 66.1772 89.1737 65.7318 88.9046 65.4441C88.6448 65.1564 88.2735 65.0125 87.7909 65.0125C87.4476 65.0125 87.1367 65.0868 86.8582 65.2352C86.5891 65.3745 86.3757 65.5926 86.2179 65.8895C86.0694 66.1865 85.9952 66.567 85.9952 67.031V70.734H83.8235V63.2446H85.8977V65.3188L85.5079 64.6923C85.7771 64.1912 86.1622 63.806 86.6634 63.5369C87.1645 63.2678 87.7353 63.1332 88.3756 63.1332ZM95.9681 70.8453C95.3278 70.8453 94.7106 70.7711 94.1167 70.6226C93.532 70.4648 93.0679 70.27 92.7246 70.0379L93.4485 68.4788C93.7918 68.6923 94.1955 68.8686 94.6596 69.0078C95.1329 69.1377 95.5969 69.2027 96.0516 69.2027C96.5528 69.2027 96.9055 69.1424 97.1096 69.0217C97.3231 68.9011 97.4298 68.734 97.4298 68.5206C97.4298 68.3442 97.3463 68.2143 97.1792 68.1308C97.0215 68.038 96.808 67.9684 96.5389 67.922C96.2697 67.8756 95.9728 67.8292 95.6479 67.7828C95.3324 67.7364 95.0122 67.676 94.6874 67.6018C94.3626 67.5183 94.0656 67.3976 93.7965 67.2398C93.5273 67.0821 93.3092 66.8686 93.1422 66.5995C92.9844 66.3304 92.9055 65.9823 92.9055 65.5554C92.9055 65.0821 93.0401 64.6645 93.3092 64.3026C93.5877 63.9406 93.9867 63.6576 94.5064 63.4534C95.0261 63.2399 95.6479 63.1332 96.3718 63.1332C96.8823 63.1332 97.402 63.1889 97.931 63.3003C98.46 63.4116 98.9008 63.574 99.2534 63.7875L98.5296 65.3327C98.1676 65.1192 97.801 64.9754 97.4298 64.9011C97.0679 64.8176 96.7152 64.7759 96.3718 64.7759C95.8892 64.7759 95.5366 64.8408 95.3138 64.9708C95.0911 65.1007 94.9797 65.2677 94.9797 65.4719C94.9797 65.6575 95.0586 65.7967 95.2164 65.8895C95.3834 65.9823 95.6015 66.0566 95.8707 66.1123C96.1398 66.1679 96.4321 66.219 96.7477 66.2654C97.0725 66.3025 97.3973 66.3628 97.7221 66.4464C98.047 66.5299 98.3393 66.6505 98.5992 66.8083C98.8683 66.9568 99.0864 67.1656 99.2534 67.4347C99.4205 67.6946 99.504 68.038 99.504 68.4649C99.504 68.9289 99.3648 69.3419 99.0864 69.7038C98.808 70.0565 98.4043 70.3349 97.8753 70.5391C97.3556 70.7433 96.7198 70.8453 95.9681 70.8453ZM101.108 70.734V63.0775C101.108 62.233 101.359 61.5602 101.86 61.059C102.361 60.5486 103.076 60.2934 104.004 60.2934C104.319 60.2934 104.621 60.3258 104.909 60.3908C105.206 60.4558 105.456 60.5579 105.661 60.6971L105.09 62.2701C104.969 62.1866 104.835 62.1216 104.686 62.0752C104.538 62.0288 104.38 62.0056 104.213 62.0056C103.897 62.0056 103.651 62.0984 103.475 62.284C103.308 62.4604 103.224 62.7295 103.224 63.0914V63.7875L103.28 64.7202V70.734H101.108ZM99.953 65.0821V63.4116H105.145V65.0821H99.953ZM109.849 70.8453C108.995 70.8453 108.244 70.6783 107.594 70.3442C106.954 70.0101 106.457 69.5553 106.104 68.98C105.752 68.3953 105.575 67.7317 105.575 66.9893C105.575 66.2375 105.747 65.574 106.09 64.9986C106.443 64.4139 106.921 63.9592 107.524 63.6344C108.128 63.3003 108.81 63.1332 109.571 63.1332C110.304 63.1332 110.963 63.291 111.547 63.6065C112.141 63.9128 112.61 64.3582 112.953 64.9429C113.297 65.5183 113.468 66.2097 113.468 67.0171C113.468 67.1006 113.464 67.1981 113.455 67.3095C113.445 67.4115 113.436 67.509 113.427 67.6018H107.343V66.335H112.285L111.45 66.7109C111.45 66.3211 111.371 65.9823 111.213 65.6946C111.056 65.4069 110.837 65.1842 110.559 65.0264C110.281 64.8594 109.956 64.7759 109.585 64.7759C109.213 64.7759 108.884 64.8594 108.596 65.0264C108.318 65.1842 108.1 65.4116 107.942 65.7086C107.784 65.9963 107.705 66.3396 107.705 66.7387V67.0728C107.705 67.4811 107.793 67.8431 107.97 68.1586C108.155 68.4649 108.411 68.7015 108.735 68.8686C109.069 69.0264 109.459 69.1052 109.905 69.1052C110.304 69.1052 110.652 69.0449 110.949 68.9243C111.255 68.8036 111.533 68.6227 111.784 68.3814L112.939 69.6342C112.596 70.024 112.165 70.3256 111.645 70.5391C111.125 70.7433 110.527 70.8453 109.849 70.8453ZM114.914 70.734V63.2446H116.988V65.3605L116.696 64.748C116.919 64.219 117.276 63.82 117.768 63.5508C118.26 63.2724 118.858 63.1332 119.564 63.1332V65.1378C119.471 65.1285 119.387 65.1239 119.313 65.1239C119.239 65.1146 119.16 65.11 119.077 65.11C118.483 65.11 118 65.2817 117.629 65.625C117.267 65.9591 117.086 66.4835 117.086 67.1981V70.734H114.914Z" fill="#012B50"/>
</g>
<defs>
<filter id="filter0_d_47_403" x="0.281837" y="1.46381" width="142.972" height="142.972" filterUnits="userSpaceOnUse" color-interpolation-filters="sRGB">
<feFlood flood-opacity="0" result="BackgroundImageFix"/>
<feColorMatrix in="SourceAlpha" type="matrix" values="0 0 0 0 0 0 0 0 0 0 0 0 0 0 0 0 0 0 127 0" result="hardAlpha"/>
<feOffset dy="6.71792"/>
<feGaussianBlur stdDeviation="3.35896"/>
<feComposite in2="hardAlpha" operator="out"/>
<feColorMatrix type="matrix" values="0 0 0 0 0 0 0 0 0 0 0 0 0 0 0 0 0 0 0.25 0"/>
<feBlend mode="normal" in2="BackgroundImageFix" result="effect1_dropShadow_47_403"/>
<feBlend mode="normal" in="SourceGraphic" in2="effect1_dropShadow_47_403" result="shape"/>
</filter>
</defs>
</svg>
