<svg width="15" height="18" viewBox="0 0 20 18" fill="none" xmlns="http://www.w3.org/2000/svg">
    <path
        d="M18.0002 10.9998C18.3855 11 18.7558 11.1484 19.0346 11.4142C19.3134 11.6801 19.4792 12.043 19.4978 12.4277C19.5163 12.8125 19.386 13.1896 19.1341 13.481C18.8821 13.7724 18.5277 13.9556 18.1442 13.9928L18.0002 13.9998H5.62124L7.06124 15.4398C7.334 15.7116 7.4918 16.0779 7.50197 16.4628C7.51213 16.8477 7.37388 17.2218 7.11584 17.5076C6.8578 17.7934 6.49973 17.969 6.11577 17.9981C5.73181 18.0272 5.35138 17.9075 5.05324 17.6638L4.93924 17.5608L1.11024 13.7308C0.136235 12.7568 0.770235 11.1138 2.10124 11.0058L2.24124 10.9998H18.0002ZM12.9402 0.439813C13.2026 0.17721 13.553 0.0212212 13.9237 0.00201127C14.2945 -0.0171987 14.6591 0.101735 14.9472 0.335813L15.0612 0.438813L18.8902 4.26881C19.8642 5.24281 19.2302 6.88581 17.8992 6.99381L17.7592 6.99981H2.00024C1.61502 6.99962 1.24464 6.85124 0.965849 6.5854C0.687057 6.31957 0.521223 5.95667 0.502711 5.5719C0.484199 5.18713 0.614427 4.80998 0.866411 4.51861C1.11839 4.22724 1.47282 4.04398 1.85624 4.00681L2.00024 3.99981H14.3792L12.9392 2.55981C12.6583 2.27856 12.5006 1.89731 12.5006 1.49981C12.5006 1.10231 12.6593 0.721064 12.9402 0.439813Z"
        fill="#000" />
</svg>