<svg width="18" height="20" viewBox="0 0 18 20" fill="none" xmlns="http://www.w3.org/2000/svg">
    <path
        d="M10.9998 2.00074C11 1.61552 11.1484 1.24515 11.4142 0.966356C11.6801 0.687565 12.043 0.52173 12.4277 0.503218C12.8125 0.484705 13.1896 0.614933 13.481 0.866917C13.7724 1.1189 13.9556 1.47332 13.9928 1.85674L13.9998 2.00074L13.9998 14.3797L15.4398 12.9397C15.7116 12.667 16.0779 12.5092 16.4628 12.499C16.8477 12.4888 17.2218 12.6271 17.5076 12.8851C17.7934 13.1432 17.969 13.5013 17.9981 13.8852C18.0272 14.2692 17.9075 14.6496 17.6638 14.9477L17.5608 15.0617L13.7308 18.8907C12.7568 19.8647 11.1138 19.2307 11.0058 17.8997L10.9998 17.7597L10.9998 2.00074ZM0.439813 7.06074C0.17721 6.79837 0.0212212 6.44795 0.00201127 6.07723C-0.0171987 5.70652 0.101735 5.34185 0.335813 5.05374L0.438813 4.93974L4.26881 1.11074C5.24281 0.136742 6.88581 0.770742 6.99381 2.10174L6.99981 2.24174L6.99981 18.0007C6.99962 18.386 6.85124 18.7563 6.5854 19.0351C6.31957 19.3139 5.95667 19.4798 5.5719 19.4983C5.18713 19.5168 4.80998 19.3865 4.51861 19.1346C4.22724 18.8826 4.04398 18.5282 4.00681 18.1447L3.99981 18.0007L3.99981 5.62174L2.55981 7.06174C2.27856 7.34264 1.89731 7.50042 1.49981 7.50042C1.10231 7.50042 0.721064 7.34164 0.439813 7.06074Z"
        fill="#000" />
</svg>